# xmcd
#
# Track frame offsets:
#	150
#	15548
#	48542
#	66467
#	80099
#	94416
#	115299
#	150413
#	164614
#	188193
#	211305
#	227717
#	242380
#
# Disc length: 3485 seconds
# Revision: 0
# Processed by: cddbd v1.5.2PL0 Copyright (c) Steve Scherf et al.
# Submitted via: dBpowerAMP V12.0
#
DISCID=ae0d9b0d
DTITLE=Stacy Jones - Long Time Comin'
DYEAR=2010
DGENRE=Blues/Rock
TTITLE0=Waitin' On Love
TTITLE1=I Just Want You
TTITLE2=Ain't Too Old
TTITLE3=Whatcha Gonna Do
TTITLE4=Turn To The Blues
TTITLE5=Status Quo
TTITLE6=Blues Is In The House
TTITLE7=Let's Do It Again
TTITLE8=(Your Love Lifted Me) Higher And Higher
TTITLE9=Lost But Not Found
TTITLE10=High Cost Of Loving
TTITLE11=Long Time Comin'
TTITLE12=Good True Love
EXTD=
EXTT0=
EXTT1=
EXTT2=
EXTT3=
EXTT4=
EXTT5=
EXTT6=
EXTT7=
EXTT8=
EXTT9=
EXTT10=
EXTT11=
EXTT12=
PLAYORDER=
